Patient4_TMGait_0pt4_01_right_35_EMG.mot
version=1
nRows=40
nColumns=33
inDegrees=no
endheader
time	1LAddLong	2LGlutMax	3LGlutMed	4LIliopsoas	5LSemiMemb	6LBicFemLong	7LRecFem	8LVastMed	9LVastLat	10LGasMed	11LTibAnt	12lTibPost	13LPeroneusLong	14LSol	15LExtDigLong	16LFlexDigLong	17RAddLong	18RGlutMax	19RGlutMed	20RIliopsoas	21RSemiMemb	22RBicFemLong	23RRecFem	24RVastMed	25RVastLat	26RGasMed	27RTibAnt	28RTibPost	29RPeroneusLong	30RSol	31RExtDigLong	32RFlexDigLong
46.973	0.015564	-0.044708	0.06073	0.005341	0.036774	-0.031891	-0.001373	0.003357	0.00885	0.041351	0.012512	0.031891	-0.072937	-0.1178	-0.020599	-0.075226	-0.010376	-0.010681	0.16556	0.027924	0.008392	-0.001678	-0.095978	-0.080566	0.005188	-0.005341	0.005035	0.001373	0.027924	0.009003	-0.003967	-0.002136
46.974	0.011749	-0.093994	0.001221	0	0.043793	-0.017853	-0.053558	0.013885	-0.13382	-0.32181	0.007629	-0.14404	0.075531	-0.11292	-0.00061	0.003967	-0.02594	-0.009613	0.25894	0.023804	0.010071	0.003204	-0.10452	-0.052643	0	-0.005341	0.026398	0.001221	0.00946	0.000153	0.004578	0.001221
46.975	0.01358	-0.10254	0.010529	0.008698	0.041046	-0.00824	-0.056458	0.022125	-0.057373	-0.33463	-0.011902	0.13687	0.096741	0.49179	0.013123	-0.89325	-0.014648	-0.061646	-0.040436	-0.0383	-0.009003	-0.011749	-0.12253	-0.043488	0.006104	-0.001984	0.033569	-0.00061	-0.003662	0.010223	-0.001526	-0.006409
46.976	0.014954	-0.067444	0.039825	0.013733	0.031891	-0.018005	-0.027618	0.018005	0.010834	-0.18921	-0.009918	0.008087	0.13428	0.60486	-0.023193	0.24811	-0.027924	-0.024109	-0.31113	-0.096283	0.028534	0	-0.088806	-0.023193	-0.003204	0.003662	0.041046	-0.000763	-0.00351	0.007324	-0.002441	-0.009003
46.977	0.007172	-0.11581	0.013428	0.021515	0.025635	-0.020905	0.004425	0.019836	0.007782	0.068512	-0.002289	0.006561	0.10193	0.2858	-0.009766	0.80902	0.00061	-0.059052	-0.06958	-0.05661	0.003815	0.005951	-0.041504	-0.080109	-0.011444	0.00351	0.044098	0	-0.018768	-0.016327	-0.002136	0.000153
46.978	0.011444	-0.097351	-0.015411	-0.010071	0.025482	-0.000458	0.017548	0.010376	-0.014038	-0.020599	-0.003357	-0.010986	0.010376	-0.22629	-0.008392	-0.40131	0.002441	-0.029755	0.16983	-0.013428	-0.005341	-0.005646	-0.084381	-0.041351	-0.014496	0.007172	0.046539	0.000458	-0.013123	-0.020294	-0.008087	-0.011292
46.979	0.005646	-0.077972	0.061493	0.002441	0.027008	-0.002594	-0.027924	0.01358	-0.015259	-0.077515	0.008698	-0.070953	-0.14603	-0.70847	-0.010223	-0.065765	0.002136	-0.049133	0.38284	0.0177	0.008087	0.03891	-0.04837	-0.021973	0.002747	-0.001526	0.067749	0.000305	-0.045624	-0.025482	-0.005341	-0.005493
46.98	0.00946	-0.099945	0.077362	-0.005493	0.02594	-0.006866	-0.045929	-0.009613	0.000153	0.063019	0.023804	0.048981	-0.24094	-0.39612	-0.024261	0.60791	-0.02121	-0.077667	-0.015869	0.063171	0.056	0.053711	-0.10681	0.038757	0.01358	0.006256	0.049744	-0.000763	-0.022125	-0.010529	-0.003662	-0.006561
46.981	0.007782	-0.1033	-0.060883	0.024414	0.026703	-0.013733	-0.024719	-0.013885	-0.012817	0.1767	0.015259	-0.022888	-0.16251	0.045929	-0.030823	0.028381	-0.019531	-0.13382	-0.2063	0.023956	0.034027	0.025787	-0.078888	-0.022278	0.020447	0.006714	0.04303	-0.006256	0.002136	-0.00351	-0.003662	-0.005646
46.982	0.011139	-0.12558	-0.019836	0.001984	0.021057	-0.022888	0.019836	-0.006409	-0.002747	0.15121	0.008087	-0.043488	-0.224	0.57571	-0.049286	-0.067291	-0.021057	-0.053406	-0.089417	-0.015259	-0.121	-0.033417	-0.072174	-0.018158	0.010071	0.009766	0.031433	-0.007629	0.008087	0.004272	-0.002594	-0.004883
46.983	0.006561	-0.12131	-0.010376	0.005188	0.014954	-0.024567	0.021362	-0.000458	0.025177	0.070496	0.007629	0.068817	-0.095215	0.77591	-0.046844	-0.089264	0.000305	-0.04425	0.093079	0.036469	-0.27298	-0.067139	-0.073395	-0.041046	-0.000763	0.007477	0.053101	-0.002899	-0.034943	-0.02655	-0.000916	0.000305
46.984	0.001221	-0.098114	0.14374	-0.028839	0.016479	0.003204	-0.003662	0.002594	0.064392	0.043793	-0.00061	-0.065918	-0.098724	0.39368	-0.022888	-0.050659	0.023956	-0.088806	-0.033875	0.097809	-0.40924	-0.010223	-0.093079	-0.019531	0.008698	0.004578	0.075073	0.004425	-0.079651	-0.028534	-0.000916	-0.010071
46.985	-0.002289	-0.13672	0.083923	-0.019836	-0.001678	0.013428	0.041046	0.006714	0.044098	0.06424	-0.000153	-0.085144	0.02243	-0.76202	0.013428	0.16052	0.014648	-0.10681	0.064545	0.1506	-0.34271	0.00824	-0.1001	-0.023651	0.004578	0.006104	0.072021	-0.000763	-0.005188	0.025177	-0.00061	-0.014496
46.986	-0.001068	-0.13275	0.11047	-0.020905	-0.016327	-0.015717	0.044403	0.005798	0.005798	0.54291	0.008392	-0.14496	0.10071	-0.73975	0.000763	-0.071869	-0.015411	-0.025482	0.24735	0.065155	0.17212	0.020142	-0.10574	-0.000916	0.014191	0.00946	0.032654	-0.000763	0.20493	0.009308	0.001373	-0.010223
46.987	0.006561	-0.10651	0.033875	0.012817	-0.011444	-0.015411	0.029297	0.004578	0.015106	0.077362	-0.002594	-0.07309	0.14542	0.16373	0.03067	-0.23285	-0.027466	-0.019989	0.39047	-0.011597	0.23956	0.041046	-0.12253	-0.006256	0.021667	0.010376	0.034027	-0.001526	0.28961	-0.054779	-0.006104	-0.008087
46.988	0.012207	-0.11795	-0.066528	0.004425	0.026245	-0.021667	0.006409	0.009918	0.01358	-0.63141	-0.014801	0.17548	0.14801	0.41565	0.00351	0.26062	-0.017853	-0.041656	0.022278	-0.051727	0.078583	0.053558	-0.096893	-0.013275	0.023956	0.01297	0.043793	-0.001373	0.1152	-0.050201	-0.003357	0
46.989	0.009613	-0.11139	0.15747	0.010223	0.032959	0.006409	0.000458	0.011292	0.00946	-0.51788	-0.001373	-0.006714	-0.001678	0.040436	-0.031891	-0.49133	-0.01358	-0.061493	-0.1001	-0.029144	-0.017242	0.069427	-0.061188	0.000763	0.00885	0.010834	0.016174	-0.000305	0.001678	-0.036163	-0.005341	-0.00351
46.99	0.012512	-0.11963	0.064697	0.010986	0.040741	-0.016785	0.01236	-0.000458	0.029755	-0.30075	0.002594	0.011597	-0.13779	-0.47409	-0.042114	0.16159	-0.020905	-0.023804	0.19577	-0.019836	0.14618	0.094299	-0.093231	-0.001526	0.011292	0.010223	0.052185	-0.005188	-0.0737	-0.022583	-0.004272	-0.000305
46.991	0.016022	-0.13977	0.025635	0.014343	0.025024	-0.01709	0.008392	-0.003204	0.050964	-0.15701	0.013885	-0.049591	-0.168	-0.62134	-0.054321	-0.02243	-0.014648	-0.017853	-0.089569	0.014191	0.11581	0.065308	-0.10086	0.008392	0.0177	0.011749	0.06073	-0.002136	-0.1767	-0.02594	-0.00412	-0.006104
46.992	0.000305	-0.1149	0.10635	0.016937	0.022583	-0.009918	0.00885	0.001831	0.029755	0.018463	0.013885	-0.023193	-0.14023	-0.39825	-0.043182	-0.31296	0.002289	-0.037842	-0.18662	0.004272	0.026245	0.04303	-0.092316	0.004272	0.022736	0.009003	0.050964	-0.002594	-0.12741	-0.045471	-0.002747	0.001221
46.993	0.009766	-0.11276	0.001526	0.004578	0.026398	0.028229	0.018463	0.003204	0.021515	0.095215	0.015564	0.050049	0.001373	0.14633	-0.006714	0.56778	0.027771	-0.029297	-0.14984	0.018921	-0.017242	0.024567	-0.065002	-0.012207	0.015106	0.01709	0.040436	-0.002594	0.000763	-0.041504	-0.001373	0.001984
46.994	0.001373	-0.12222	0.001678	0.000916	0.019379	0.042267	0.03006	0.006866	0.041199	0.098419	0.002747	0.045929	0.067139	0.60394	0.020142	-0.097809	0.044556	-0.044708	-0.24994	0.030212	0.023041	0.012512	-0.033417	-0.037079	0.006104	0.005951	0.053101	-0.004272	-0.035248	0.003052	-0.001984	0.001984
46.995	0.004425	-0.1149	0.030518	-0.010681	-0.012817	0.016174	0.003204	0.005341	0.097504	0.08255	-0.000153	0.053558	0.11322	0.28473	-0.009003	0.20233	0.055237	-0.045319	0.029907	-0.004272	0.005951	0.052948	-0.055389	-0.044403	0.015564	0.013123	0.032043	-0.003357	-0.02182	0.023346	-0.000763	0.003052
46.996	0.00824	-0.10117	0.05722	-0.018616	-0.008545	-0.01358	-0.015869	0.013428	0.14999	0.097198	0.002899	0.15961	0.086212	0.050964	0.022278	0.27298	0.030975	-0.072632	0.061188	0.022125	-0.082855	0.077972	-0.054626	-0.027466	0.010071	0.009155	0.036011	-0.009766	-0.038605	0.019531	-0.003357	-0.002136
46.997	0.000153	-0.10712	0.01358	0.000916	0.016479	-0.032196	0.039215	0.000458	0.22476	0.07843	0.001678	0.010681	0.050659	0.12421	0.039825	-0.31067	-0.033875	-0.05722	-0.2388	0.02182	-0.014954	0.089417	-0.098267	-0.007477	0.016479	0.018311	0.035553	-0.007324	-0.086212	0.020599	-0.010071	-0.005646
46.998	0.007935	-0.15701	0.037994	-0.016022	0.031738	-0.014801	0.051727	-0.001221	0.11536	-0.062561	-0.007019	-0.10956	0.10696	-0.065155	0.040741	0.096436	-0.079803	-0.054932	0.021057	0.036316	0.12482	0.1738	-0.15076	0.15106	0.041199	0.014801	0.037994	-0.005188	-0.056458	0.009613	-0.002594	-0.003052
46.999	0.014954	-0.10864	0.112	0.016174	0.031128	-0.029297	0.02594	-0.000153	-0.063629	-0.16724	-0.00351	-0.00946	0.06897	0.15396	0.023193	0.10681	-0.073853	0.031128	0.055237	-0.00946	-0.044556	0.17624	-0.13992	0.14191	0.042114	0.016785	0.019226	-0.00473	0.029755	-0.026245	-0.008087	-0.001068
47	0.013733	-0.093384	0.061493	0.011444	0.011292	-0.018005	-0.005035	-0.000153	-0.15732	-0.090332	0.006561	0.009308	0.046387	0.32394	-0.001831	-0.001984	-0.044861	-0.004578	0.020447	0.02533	-0.049133	0.061493	-0.13275	0.084076	0.01297	0.012665	0.010986	-0.007477	0.31113	-0.004883	-0.003967	-0.003204
47.001	0.011139	-0.096283	-0.014954	0.017548	0.024109	-0.023499	0.025177	-0.001373	-0.065002	-0.16693	0.006714	-0.019226	0.02533	0.22034	-0.004425	-0.040436	-0.025482	0.013885	0.11475	0.058746	-0.003815	0.11902	-0.16739	0.078583	0.027924	0.011597	0.062561	-0.002899	0.21973	-0.005798	-0.003052	-0.007019
47.002	0.014038	-0.11124	-0.093689	0.001678	0.036316	-0.019226	0.036469	-0.007782	-0.042114	0.026855	-0.002136	-0.013885	-0.014191	-0.23422	0.002136	-0.1004	-0.029907	-0.010529	0.001221	0.031586	0.10193	0.059052	-0.1474	0.08728	0.028076	0.018616	0.061798	-0.005188	0.078583	0.001526	-0.001526	-0.011139
47.003	0.008087	-0.065765	-0.1326	0.018463	0.035248	-0.012054	0.027313	-0.00061	-0.036011	0.10284	0.004883	-0.010834	-0.009003	-0.51544	-0.006714	-0.75775	-0.012054	0.054474	-0.087128	-0.02594	0.047913	0.047913	-0.10834	0.13168	0.03418	0.014801	0.046692	-0.007629	-0.047302	-0.016785	-0.002899	-0.006714
47.004	0.006866	-0.13168	-0.090942	0.008698	0.011444	0.00885	0.031738	0.005341	0.001373	-0.12665	0.006561	0.020142	-0.10742	-0.53482	0.003052	0.027924	0.01358	0.024414	-0.29587	-0.038757	-0.034027	-0.013733	-0.10101	0.059052	0.011292	0.003662	0.023804	-0.002899	-0.06424	-0.02243	-0.003052	0.002594
47.005	0.007019	-0.12375	-0.020142	-0.01297	0.001068	0.018768	0.039368	-0.002899	-0.009155	-0.088043	0.005951	0.17685	-0.13077	0.012512	0.024719	0.89737	-0.000763	0.008087	-0.18845	-0.11459	0.014496	-0.036774	-0.067902	0.031281	0.019379	0.003967	-0.063934	-0.007477	-0.070038	0.050354	-0.002289	0.001984
47.006	0.018463	-0.12314	-0.071564	0.003357	0.002747	0.006561	0.054779	-0.000763	0.005188	-0.052185	0.000153	-0.16785	-0.065002	0.065613	0.018768	-0.32394	0.020905	0.029449	0.17227	-0.099335	-0.059814	-0.032196	-0.072937	0.01297	0.01297	0.001221	-0.039063	0.000763	-0.103	0.042725	0.001984	-0.00061
47.007	0.010986	-0.083771	-0.09079	0.005493	0.007935	0.001373	0.057983	-0.001678	0.038605	0.22568	-0.003662	0.13473	0.028687	0.09491	0.024719	0.058136	0.013275	0.025177	0.41687	-0.071564	-0.18662	0.041656	-0.070343	-0.012054	-0.002594	0.006866	0.00061	-0.007324	-0.084991	0.026245	-0.003204	0.002441
47.008	0.010681	-0.065765	-0.12054	0.010681	0.011597	-0.002747	0.043945	0.005035	0.029907	0.70267	0.00351	-0.44388	0.065002	0.44373	0.011597	0.67368	0.002289	-0.020599	0.41779	0.01297	0.17624	0.053711	-0.09201	-0.019226	-0.003662	0.003815	0.016174	-0.007935	-0.077362	-0.000153	-0.002594	0.006104
47.009	0.009918	-0.11383	-0.14465	0.015564	0.001984	-0.003357	0.055084	-0.000458	0.016174	0.89722	-0.006561	0.27634	0.035095	0.51117	0.01709	-0.17548	0.001526	-0.025177	0.039368	0.10086	0.26627	0.026398	-0.049438	-0.01236	0.012207	0.00412	0.034027	-0.00351	-0.16403	-0.020599	-0.002136	0.001221
47.01	0.005493	-0.11612	-0.1738	0.00824	0.00351	-0.003204	0.05661	0.001678	0.005188	0.98724	0.006104	0.39627	0.002899	0.43762	0.008087	-0.13382	-0.000916	-0.0383	-0.11444	0.11093	0.12589	-0.026093	-0.092468	0.051575	0.023956	-0.000153	0.027618	-0.009613	-0.013885	-0.035095	0	0.001984
47.011	0.007629	-0.13397	-0.22629	-0.008087	0.002136	0.00473	0.070343	0.002289	0.006866	0.36438	0.002899	-0.012665	-0.048828	0.41946	-0.010834	0.2475	0.017853	0.013275	-0.066223	0.052032	-0.02243	-0.053711	-0.059052	0.04837	0.038605	0.004425	0.019379	-0.009766	0.55115	-0.018311	-0.002441	0.005951
47.012	0.014954	-0.1355	-0.1265	0.007629	0.003662	0.001526	0.049438	0.001373	0.012512	0.13916	-0.000305	-0.06958	-0.084229	0.10941	-0.016785	-0.26901	0.022583	-0.002747	0.14206	0.031738	-0.1947	-0.059052	-0.13443	0.014496	0.031281	0.007629	-0.034485	-0.002136	0.57754	0.007935	-0.002441	-0.005646
